<?xml version="1.0" standalone="no"?>
<!DOCTYPE svg PUBLIC "-//W3C//DTD SVG 20010904//EN"
 "http://www.w3.org/TR/2001/REC-SVG-20010904/DTD/svg10.dtd">
<svg version="1.0" xmlns="http://www.w3.org/2000/svg"
 width="960.000000pt" height="960.000000pt" viewBox="0 0 960.000000 960.000000"
 preserveAspectRatio="xMidYMid meet">
<metadata>
Created by potrace 1.14, written by Peter Selinger 2001-2017
</metadata>
<g transform="translate(0.000000,960.000000) scale(0.100000,-0.100000)"
fill="#000000" stroke="none">
<path d="M4290 9593 c-64 -26 -267 -204 -330 -288 -8 -11 -27 -36 -42 -56 -78
-104 -204 -373 -233 -499 -2 -8 -11 -43 -20 -77 -19 -74 -21 -81 -40 -193 -9
-47 -18 -110 -21 -140 -3 -30 -7 -66 -9 -80 -7 -41 -17 -259 -16 -355 1 -178
16 -418 35 -560 3 -22 8 -65 11 -95 4 -30 9 -64 12 -75 3 -11 7 -31 8 -45 1
-14 8 -52 15 -85 7 -33 14 -67 15 -75 2 -8 4 -15 5 -15 1 0 3 -9 5 -20 5 -23
61 -200 74 -230 5 -11 13 -31 19 -45 18 -42 64 -164 67 -175 6 -29 18 -71 23
-80 3 -5 7 -21 9 -35 4 -31 11 -65 13 -65 1 0 3 -11 5 -25 1 -14 5 -38 8 -55
18 -92 31 -464 18 -490 -3 -5 -6 -28 -7 -50 -4 -85 -28 -242 -58 -390 -17 -80
-68 -270 -91 -336 -25 -71 -29 -86 -40 -138 -10 -50 -49 -167 -64 -191 -9 -13
-14 -24 -12 -25 3 0 -7 -18 -22 -40 -37 -56 -78 -79 -125 -69 -20 4 -40 7 -43
6 -3 0 -24 16 -46 36 -49 46 -75 101 -79 167 -8 120 -14 202 -19 235 -3 19 -7
49 -9 65 -6 43 -50 200 -75 267 -58 158 -170 348 -258 443 -13 13 -23 27 -23
30 0 9 -180 185 -229 225 -24 19 -49 40 -55 45 -6 6 -40 31 -76 55 -36 25 -66
48 -68 53 -2 4 -7 7 -12 7 -4 0 -37 18 -71 40 -82 50 -249 133 -344 170 -11 4
-31 12 -45 17 -38 15 -109 8 -138 -14 -58 -44 -79 -97 -60 -158 5 -16 11 -37
13 -45 2 -8 4 -15 5 -15 2 0 10 -35 17 -80 12 -74 6 -640 -7 -640 -1 0 -4 -18
-6 -40 -8 -94 -32 -271 -50 -365 -2 -14 -6 -41 -9 -60 -3 -19 -7 -44 -10 -55
-2 -11 -13 -62 -24 -113 -12 -51 -35 -146 -52 -210 -17 -64 -32 -121 -33 -127
-1 -5 -4 -14 -8 -20 -3 -5 -9 -26 -14 -45 -10 -43 -9 -42 -17 -60 -14 -34 -73
-246 -93 -333 -2 -9 -6 -25 -9 -35 -17 -66 -57 -264 -60 -294 -2 -20 -5 -41
-8 -45 -3 -4 -8 -33 -12 -63 -3 -30 -8 -62 -10 -70 -5 -18 -13 -75 -21 -150
-3 -30 -7 -66 -9 -80 -38 -298 -50 -838 -20 -950 2 -8 7 -33 10 -55 11 -69 13
-79 24 -130 6 -27 14 -61 17 -75 22 -107 135 -389 195 -492 16 -27 29 -51 29
-53 0 -8 104 -160 112 -163 4 -2 8 -8 8 -14 0 -41 331 -382 454 -468 12 -8 26
-19 32 -25 6 -6 37 -28 70 -50 32 -22 61 -43 64 -46 9 -10 175 -106 270 -157
135 -71 448 -203 515 -216 6 -1 51 -14 100 -29 145 -44 319 -88 405 -102 19
-3 58 -10 85 -15 28 -5 68 -12 90 -15 22 -2 56 -7 76 -11 20 -3 56 -7 80 -9
24 -2 54 -6 67 -9 85 -19 764 -28 942 -12 41 3 98 8 125 11 28 2 50 4 50 5 0
1 20 3 44 5 25 3 60 7 78 10 18 3 49 7 68 10 19 3 52 8 73 11 20 3 51 7 67 10
33 5 67 11 75 14 3 1 8 2 12 2 8 -2 150 28 157 33 3 1 24 6 46 9 22 4 48 9 57
12 9 3 27 7 40 10 13 3 32 7 43 9 11 3 52 14 90 26 39 11 77 21 85 21 8 1 21
5 28 11 6 5 12 7 12 4 0 -10 413 134 535 188 47 20 124 55 193 86 34 16 65 29
68 29 3 0 10 5 17 10 7 6 50 30 97 54 126 64 155 80 158 89 2 4 8 7 12 7 9 0
141 80 150 90 3 4 13 9 22 13 19 7 191 133 248 182 58 49 224 217 257 260 82
105 99 129 180 261 7 10 35 66 63 124 28 58 56 113 61 122 5 10 9 25 9 33 0 8
5 15 10 15 6 0 9 3 8 8 -2 6 44 161 59 202 3 8 8 24 10 34 2 11 10 45 17 75
16 62 29 133 32 171 1 14 3 25 4 25 1 0 3 9 4 20 25 181 26 590 1 745 -2 14
-7 51 -10 83 -4 32 -9 68 -11 80 -6 26 -10 50 -25 137 -6 36 -14 72 -17 80 -3
8 -7 24 -8 35 -2 11 -7 31 -10 45 -4 14 -8 32 -10 40 -1 8 -5 25 -8 38 -3 12
-8 30 -10 40 -8 35 -28 107 -36 127 -7 19 -40 126 -47 152 -6 26 -10 38 -16
53 -3 8 -13 35 -21 60 -29 88 -88 241 -136 355 -7 17 -19 46 -28 65 -8 19 -38
85 -68 145 -50 105 -71 140 -153 265 -42 64 -175 244 -199 269 -10 10 -21 25
-27 33 -5 9 -29 43 -52 76 -24 34 -43 65 -43 71 0 5 -4 11 -9 13 -9 3 -127
241 -133 268 -2 8 -5 17 -8 20 -7 7 -26 58 -61 165 -17 50 -34 99 -40 110 -5
11 -11 29 -12 40 -2 11 -6 27 -9 35 -15 45 -30 98 -58 215 -18 72 -33 135 -35
140 -3 18 -16 80 -19 95 -2 8 -6 31 -10 50 -3 19 -8 46 -10 60 -3 14 -5 25 -6
25 -2 0 -6 24 -16 85 -11 72 -14 93 -18 130 -3 19 -5 35 -6 35 -1 0 -3 18 -6
40 -10 94 -35 135 -98 160 -65 26 -118 13 -175 -43 -26 -26 -56 -60 -66 -77
-11 -16 -25 -34 -32 -38 -7 -4 -13 -12 -13 -17 0 -5 -15 -33 -33 -62 -41 -66
-67 -120 -105 -223 -19 -50 -61 -226 -69 -290 -9 -72 -8 -453 2 -510 3 -22 13
-78 21 -125 8 -47 17 -98 20 -115 3 -16 10 -48 16 -70 6 -22 13 -46 15 -52 2
-7 4 -19 6 -25 16 -60 32 -114 54 -178 14 -41 26 -82 28 -90 2 -8 8 -28 14
-43 18 -46 69 -257 76 -317 4 -30 9 -64 11 -74 25 -136 25 -480 -1 -602 -3
-12 -7 -38 -11 -60 -27 -174 -142 -420 -256 -547 -30 -34 -40 -39 -88 -42 -35
-3 -65 1 -88 12 -41 19 -101 89 -121 140 -8 21 -18 40 -21 43 -9 6 -58 182
-66 234 -3 21 -8 48 -10 60 -3 11 -7 39 -9 61 -2 22 -7 67 -11 99 -12 112 -14
181 -14 391 1 245 8 424 26 585 24 219 24 445 0 556 -2 12 -7 39 -10 60 -20
128 -125 481 -175 589 -10 22 -31 69 -46 105 -15 36 -45 98 -66 139 -22 40
-39 79 -39 86 0 8 -4 15 -8 17 -4 2 -25 35 -46 73 -36 65 -193 314 -206 325
-3 3 -23 29 -44 59 -21 30 -43 59 -47 65 -40 48 -49 60 -49 65 0 3 -10 17 -23
31 -25 28 -181 218 -212 259 -11 14 -30 37 -42 51 -13 14 -26 33 -29 43 -3 9
-10 17 -15 17 -5 0 -9 5 -9 12 0 6 -6 19 -14 27 -7 9 -29 45 -48 81 -19 36
-40 74 -46 85 -20 35 -84 178 -87 194 -2 9 -11 33 -19 53 -9 21 -16 40 -17 43
0 2 -7 22 -16 42 -39 92 -142 487 -157 601 -3 24 -7 46 -10 50 -3 6 -7 32 -22
147 -2 17 -6 39 -9 51 -2 11 -7 47 -11 80 -3 32 -8 73 -9 89 -2 17 -7 68 -10
115 -4 47 -8 95 -10 107 -7 44 -44 93 -81 107 -27 11 -96 16 -114 9z m-1763
-5278 c47 -31 66 -66 66 -125 0 -27 -10 -130 -18 -170 -2 -14 -7 -45 -10 -70
-3 -25 -7 -54 -9 -65 -2 -11 -7 -49 -11 -85 -20 -202 -31 -236 -83 -275 -38
-28 -136 -28 -174 0 -56 42 -74 115 -54 210 4 17 9 50 12 75 12 115 25 218 30
245 2 11 6 40 9 65 11 98 14 110 30 144 10 20 24 36 31 36 8 0 14 4 14 10 0
14 60 29 102 26 21 -2 50 -11 65 -21z m-151 -1194 c47 -22 76 -72 76 -128 -1
-27 -3 -194 -5 -373 -3 -300 -4 -327 -22 -354 -40 -61 -141 -79 -207 -38 -68
42 -72 65 -72 402 0 244 6 390 17 397 4 2 7 12 7 22 0 20 32 53 73 74 34 18
91 17 133 -2z"/>
<path d="M7094 8331 c-39 -24 -86 -81 -116 -140 -13 -25 -26 -47 -30 -49 -5
-2 -8 -9 -8 -16 0 -7 -11 -40 -25 -73 -13 -33 -26 -71 -28 -84 -3 -13 -10 -43
-16 -66 -13 -47 -25 -122 -22 -140 0 -7 2 -20 3 -28 1 -9 16 -31 35 -50 59
-61 142 -66 207 -12 34 29 39 42 66 149 16 65 37 135 45 155 36 86 49 113 56
113 12 0 52 71 55 99 5 44 -14 96 -46 124 -16 15 -30 24 -30 20 0 -4 -5 -2
-12 5 -19 19 -99 14 -134 -7z"/>
<path d="M1395 7507 c-56 -18 -105 -79 -105 -132 0 -37 23 -86 58 -120 27 -27
104 -155 108 -180 1 -5 18 -53 38 -105 49 -131 78 -156 179 -152 71 3 130 65
130 136 -1 39 -42 177 -66 221 -6 11 -12 22 -12 25 -3 23 -89 174 -111 197 -7
7 -21 23 -31 36 -48 61 -129 93 -188 74z"/>
</g>
</svg>
