<svg width="23" height="30" viewBox="0 0 23 30" fill="none" xmlns="http://www.w3.org/2000/svg">
<g clip-path="url(#clip0)">
<path d="M21.4644 15.3484C21.1927 14.7609 20.8179 14.1824 20.2698 13.5141C18.8879 11.8368 18.4663 8.09644 18.4616 8.06056C18.4429 7.88117 18.3117 7.73317 18.1384 7.67935C17.9604 7.62553 17.7683 7.67487 17.6418 7.80941C15.9929 9.5899 16.6862 12.3391 17.061 13.4379C17.164 13.7384 17.2765 14.0927 17.356 14.4515C17.965 17.3532 16.7892 18.6672 16.5128 18.9318C16.2458 19.0036 16.0631 18.9677 15.8945 18.7928C15.3136 18.1784 15.1215 16.1647 15.3932 13.541C15.4495 13.0074 15.4354 12.5275 15.3558 12.079C14.7828 8.85425 12.6818 6.78575 12.1469 6.06032C10.676 3.96141 10.5261 0.467717 10.5214 0.436323C10.5167 0.270383 10.4183 0.122383 10.2637 0.0506256C10.1138 -0.021132 9.93113 -0.0121623 9.7906 0.0820195C7.33592 1.69208 7.54673 5.57147 7.88869 7.73766C7.96833 8.23996 8.12292 8.75123 8.38993 9.39705C9.34089 11.7067 8.20255 14.6892 8.19319 14.7161C8.18382 14.743 8.17445 14.7654 8.16976 14.7923C8.02454 15.5278 7.78095 15.9674 7.50925 15.9674C7.48114 15.9674 7.45304 15.9629 7.42025 15.9539C7.08765 15.8866 6.91432 15.5458 6.90964 15.2498C6.8909 11.4242 2.91377 10.137 2.87161 10.1236C2.6936 10.0698 2.49685 10.1191 2.37505 10.2581C2.24857 10.3972 2.22515 10.59 2.30947 10.7515C2.35631 10.8457 2.50622 11.2583 2.40316 12.7158C2.31415 14.0254 2.06588 15.3215 1.66769 16.5638C0.721428 19.5418 0.871331 22.3627 0.8807 22.4973C1.60834 30.1353 12.9872 31.4737 19.7404 27.1705C20.4806 26.6996 21.0849 26.1614 21.5299 25.5694C24.0221 22.2506 22.5559 17.7434 21.4644 15.3484ZM4.1552 22.6453C4.16926 22.892 3.97251 23.1027 3.71486 23.1162H3.68676C3.43848 23.1162 3.23236 22.9323 3.21831 22.6946C3.17615 22.0398 3.18552 21.3537 3.23704 20.6092C3.25578 20.3625 3.48064 20.1786 3.73828 20.192C3.99593 20.21 4.19268 20.4252 4.17394 20.6719C4.12237 21.3806 4.11304 22.0264 4.1552 22.6453ZM4.3847 18.6717C4.35659 18.9004 4.15516 19.0664 3.92093 19.0664C3.9022 19.0664 3.88346 19.0664 3.86003 19.0619C3.60707 19.0305 3.42438 18.8107 3.45248 18.5641L3.67734 16.8329C3.71013 16.5907 3.93967 16.4158 4.202 16.4427C4.45965 16.4741 4.64234 16.6984 4.60955 16.945L4.3847 18.6717Z" fill="#FF6B09"/>
<path d="M18.2951 6.13564C18.0396 6.09774 17.8644 5.86915 17.9038 5.62454C17.933 5.44233 18.1023 4.50948 18.5616 4.04041C18.7384 3.85953 19.0344 3.85011 19.2238 4.02005C19.4125 4.1893 19.4221 4.47315 19.2451 4.65402C19.0507 4.85266 18.885 5.42111 18.8297 5.76124C18.7902 6.00325 18.5544 6.17309 18.2951 6.13564Z" fill="#FF6B09"/>
<path d="M1.21733 8.3698C1.12767 8.03627 0.904877 7.4862 0.69103 7.30663C0.49639 7.14324 0.476949 6.85989 0.647558 6.67377C0.817746 6.4872 1.11348 6.46814 1.30859 6.63215C1.81339 7.05588 2.07712 7.96841 2.12495 8.14686C2.18899 8.38667 2.03806 8.6306 1.78781 8.69236C1.53204 8.75393 1.28109 8.60562 1.21733 8.3698Z" fill="#FF6B09"/>
</g>
<defs>
<clipPath id="clip0">
<rect width="22.4855" height="29.6" fill="white" transform="translate(0.471848)"/>
</clipPath>
</defs>
</svg>
